<svg xmlns="http://www.w3.org/2000/svg" viewBox="0 0 64 64" role="img">
  <defs>
    <linearGradient id="sb-grad" x1="0%" y1="0%" x2="100%" y2="100%">
      <stop offset="0%" stop-color="#2563eb"/>
      <stop offset="50%" stop-color="#22d3ee"/>
      <stop offset="100%" stop-color="#14b8a6"/>
    </linearGradient>
  </defs>
  <rect width="64" height="64" rx="14" fill="url(#sb-grad)" />
  <path
    d="M20 40.5c2.4 2.8 6.1 4.5 10.6 4.5 6.8 0 12.4-4.1 12.4-10 0-5.6-5.4-7.7-10-9-3.5-1-6.4-1.8-6.4-3.9 0-1.7 1.8-2.9 4.5-2.9 2.4 0 4.8.8 6.8 2.4l3.5-4.8c-2.8-2.3-6.6-3.6-10.5-3.6-6.3 0-11.6 3.6-11.6 9.6 0 5.9 5.3 7.8 9.6 9 3.6 1 6.8 1.9 6.8 4.1 0 1.9-2 3.1-4.9 3.1-3.1 0-6.3-1.1-8.6-3.3l-3.2 4.8z"
    fill="#0f172a"
    fill-opacity="0.92"
  />
</svg>
