<svg xmlns="http://www.w3.org/2000/svg" viewBox="0 0 1200 600" role="img" aria-label="StockBuddy buffalo logo">
  <path fill="#e94b4b" d="
    M170,360
    C140,330 135,290 160,260
    C185,230 235,220 280,235
    C300,180 350,145 415,140
    C520,130 650,145 770,165
    C880,185 970,220 1030,270
    C1085,315 1100,375 1075,420
    C1060,450 1035,470 1000,478
    C980,485 960,475 952,455
    C943,432 960,408 987,402
    C995,400 1003,401 1010,404
    C1016,390 1013,365 995,343
    C968,310 912,284 840,268
    C750,248 610,238 490,250
    C435,256 395,280 372,318
    C352,350 340,390 336,430
    C332,474 305,505 260,512
    C215,520 180,492 176,450
    C174,427 183,405 201,392
    C214,382 230,379 245,385
    C260,392 270,406 271,423
    C272,442 260,459 242,465
    C250,470 262,471 273,468
    C295,461 307,441 310,418
    C316,375 330,330 356,290
    C322,280 286,277 255,290
    C226,302 205,325 200,350
    Z
  "/>
</svg>
